<svg width="40" height="40" viewBox="0 0 40 40" fill="none" xmlns="http://www.w3.org/2000/svg">
    <path d="M12 2C6.486 2 2 6.486 2 12c0 4.434 3.1 8.198 7.42 9.482C9.165 22.254 9 23.094 9 24h6c0-.736-.118-1.451-.32-2.14 4.198-1.068 7.32-4.67 7.32-9.86 0-5.514-4.486-10-10-10zm-2 14h-2v-2h2v2zm8 0h-2v-2h2v2zm-2-4h-2v-2h2v2zm4 0h-2v-2h2v2zm-4 0h-2v-2h2v2z"
          fill="url(#paint0_linear)"/>
    <defs>
        <linearGradient id="paint0_linear" x1="2.94192" y1="4.89955" x2="37.7772" y2="39.7345"
                        gradientUnits="userSpaceOnUse">
            <stop offset="0.15937" stop-color="#3BEA62"/>
            <stop offset="0.5404" stop-color="#3C99CC"/>
            <stop offset="0.93739" stop-color="#6B57FF"/>
        </linearGradient>
    </defs>
    <text x="11" y="8" font-size="5" fill="black" font-weight="bold">I</text>
    <text x="11" y="14" font-size="4" fill="black" font-weight="bold">C</text>
    <text x="11" y="20" font-size="4" fill="black" font-weight="bold">G</text>

</svg>