<?xml version="1.0" encoding="utf-8"?>
<!-- Generator: Adobe Illustrator 24.1.0, SVG Export Plug-In . SVG Version: 6.00 Build 0)  -->
<svg version="1.1" id="图层_1" xmlns="http://www.w3.org/2000/svg" xmlns:xlink="http://www.w3.org/1999/xlink" x="0px" y="0px"
	 viewBox="0 0 40 40" style="enable-background:new 0 0 40 40;" xml:space="preserve">
<style type="text/css">
	.st0{fill:#F95E19;}
	.st1{fill:#FFFFFF;}
</style>
<path class="st0" d="M30,38H10c-4.4,0-8-3.6-8-8V10c0-4.4,3.6-8,8-8h20c4.4,0,8,3.6,8,8v20C38,34.4,34.4,38,30,38z"/>
<g>
	<path class="st1" d="M26.2,13.7c-0.3,0.6-0.8,1.1-1.2,1.6l-6.7,6.7c-1.8,1.7-2.5,4.2-2.1,6.7l0.4,2.6v0c0.2,0.4,0.5,0.7,0.9,1
		l3.8,3.8c-0.7-4,0.6-8.2,3.5-11.1l1-1c1.5-1.5,2.3-3.5,2.3-5.5C28,16.8,27.4,15.1,26.2,13.7z"/>
	<path class="st1" d="M17.6,21.6l6.7-6.7c0.5-0.5,0.9-1.1,1.2-1.6c0.7-1.2,1-2.5,1-3.9c0-2-0.8-4-2.3-5.5L12,16.2c-3,3-3,7.8,0,10.8
		l3.9,3.9v0l-0.4-2.6C15,25.8,15.8,23.4,17.6,21.6z"/>
</g>
</svg>
