<?xml version="1.0" encoding="utf-8"?>
<!-- Generator: Adobe Illustrator 24.1.0, SVG Export Plug-In . SVG Version: 6.00 Build 0)  -->
<svg version="1.1" id="图层_1" xmlns="http://www.w3.org/2000/svg" xmlns:xlink="http://www.w3.org/1999/xlink" x="0px" y="0px"
	 viewBox="0 0 40 40" style="enable-background:new 0 0 40 40;" xml:space="preserve">
<style type="text/css">
	.st0{fill:#F60059;}
	.st1{fill:#FFFFFF;}
</style>
<path class="st0" d="M30,38H10c-4.4,0-8-3.6-8-8V10c0-4.4,3.6-8,8-8h20c4.4,0,8,3.6,8,8v20C38,34.4,34.4,38,30,38z"/>
<g>
	<path class="st1" d="M26.23,13.69c-0.33,0.59-0.75,1.15-1.25,1.65l-6.72,6.72c-1.75,1.74-2.54,4.23-2.13,6.66l0.43,2.57v0.01
		c0.25,0.37,0.54,0.71,0.87,1.04l3.76,3.77c-0.67-4.05,0.65-8.18,3.55-11.08l0.95-0.95c1.52-1.52,2.27-3.51,2.27-5.5
		C27.96,16.84,27.39,15.11,26.23,13.69z"/>
	<path class="st1" d="M17.58,21.61l6.72-6.72c0.5-0.5,0.92-1.06,1.25-1.65c0.68-1.19,1.02-2.52,1.02-3.85c0-1.99-0.76-3.98-2.27-5.5
		L12.01,16.18c-2.98,2.98-2.98,7.82,0,10.8l3.87,3.87v-0.01l-0.43-2.57C15.04,25.84,15.83,23.35,17.58,21.61z"/>
</g>
</svg>
